# xmcd
#
# Track frame offsets:
#	150
#	4376
#	35151
#	49891
#	72929
#	75124
#	122366
#	152487
#	174333
#	206094
#	206854
#	232774
#	264589
#	282190
#
# Disc length: 4054 seconds
#
# Revision: 1
# Processed by: cddbd v1.5.2PL0 Copyright (c) Steve Scherf et al.
# Submitted via: audiograbber 1.83.01
#
DISCID=b80fd40e
DTITLE=Grateful Dead - 72-04-14A Tivoli Garden, Copenhagen, Denmark
DYEAR=1900
DGENRE=
TTITLE0=Crowd
TTITLE1=Big Boss Man
TTITLE2=BIODTL
TTITLE3=Casey Jones
TTITLE4=Cutler TV Announcement
TTITLE5=Truckin'
TTITLE6=It Hurts Me Too
TTITLE7=Brown Eyed Women
TTITLE8=Looks Like Rain
TTITLE9=Crowd and Tuning
TTITLE10=Not Fade Away
TTITLE11=GDTRFB
TTITLE12=Not Fade Away
TTITLE13=One More Saturday Night
EXTD=
EXTT0=
EXTT1=
EXTT2=
EXTT3=
EXTT4=
EXTT5=
EXTT6=
EXTT7=
EXTT8=
EXTT9=
EXTT10=
EXTT11=
EXTT12=
EXTT13=
PLAYORDER=
